<mxfile host="app.diagrams.net" modified="2024-02-10T17:44:22.963Z" agent="Mozilla/5.0 (Macintosh; Intel Mac OS X 10_15_7) AppleWebKit/605.1.15 (KHTML, like Gecko) Version/17.2.1 Safari/605.1.15" etag="T9Qf6xkfbqLrKWcrDrHs" version="23.1.1" type="github">
  <diagram name="第 1 页" id="Yxmciqe3Ic6rvKLmPSiR">
    <mxGraphModel dx="578" dy="359" grid="1" gridSize="10" guides="1" tooltips="1" connect="1" arrows="1" fold="1" page="1" pageScale="1" pageWidth="827" pageHeight="1169" math="0" shadow="0">
      <root>
        <mxCell id="0" />
        <mxCell id="1" parent="0" />
        <mxCell id="qIPtM-hVdo-HhDl9xIlK-58" value="" style="rounded=0;whiteSpace=wrap;html=1;dashed=1;" vertex="1" parent="1">
          <mxGeometry x="1140" y="328" width="190" height="222" as="geometry" />
        </mxCell>
        <mxCell id="qIPtM-hVdo-HhDl9xIlK-57" value="" style="rounded=0;whiteSpace=wrap;html=1;dashed=1;" vertex="1" parent="1">
          <mxGeometry x="827" y="328" width="283" height="222" as="geometry" />
        </mxCell>
        <mxCell id="qIPtM-hVdo-HhDl9xIlK-1" value="" style="edgeStyle=orthogonalEdgeStyle;rounded=0;orthogonalLoop=1;jettySize=auto;html=1;fontFamily=Times New Roman;" edge="1" parent="1" source="qIPtM-hVdo-HhDl9xIlK-2" target="qIPtM-hVdo-HhDl9xIlK-4">
          <mxGeometry relative="1" as="geometry" />
        </mxCell>
        <mxCell id="qIPtM-hVdo-HhDl9xIlK-2" value="开始" style="rounded=1;whiteSpace=wrap;html=1;fontSize=17;fontFamily=Times New Roman;" vertex="1" parent="1">
          <mxGeometry x="1060" y="160" width="120" height="30" as="geometry" />
        </mxCell>
        <mxCell id="qIPtM-hVdo-HhDl9xIlK-3" value="" style="edgeStyle=orthogonalEdgeStyle;rounded=0;orthogonalLoop=1;jettySize=auto;html=1;fontFamily=Times New Roman;" edge="1" parent="1" source="qIPtM-hVdo-HhDl9xIlK-4" target="qIPtM-hVdo-HhDl9xIlK-6">
          <mxGeometry relative="1" as="geometry" />
        </mxCell>
        <mxCell id="qIPtM-hVdo-HhDl9xIlK-4" value="输入数据" style="shape=parallelogram;perimeter=parallelogramPerimeter;whiteSpace=wrap;html=1;fixedSize=1;fontSize=17;rounded=1;fontFamily=Times New Roman;" vertex="1" parent="1">
          <mxGeometry x="1060" y="210" width="120" height="30" as="geometry" />
        </mxCell>
        <mxCell id="qIPtM-hVdo-HhDl9xIlK-5" style="edgeStyle=orthogonalEdgeStyle;rounded=0;orthogonalLoop=1;jettySize=auto;html=1;exitX=0.5;exitY=1;exitDx=0;exitDy=0;entryX=0.5;entryY=0;entryDx=0;entryDy=0;fontFamily=Times New Roman;" edge="1" parent="1" source="qIPtM-hVdo-HhDl9xIlK-6" target="qIPtM-hVdo-HhDl9xIlK-8">
          <mxGeometry relative="1" as="geometry">
            <mxPoint x="970" y="370" as="sourcePoint" />
          </mxGeometry>
        </mxCell>
        <mxCell id="qIPtM-hVdo-HhDl9xIlK-6" value="初始化参数" style="whiteSpace=wrap;html=1;fontSize=17;rounded=1;fontFamily=Times New Roman;" vertex="1" parent="1">
          <mxGeometry x="1060" y="259" width="120" height="30" as="geometry" />
        </mxCell>
        <mxCell id="qIPtM-hVdo-HhDl9xIlK-7" value="" style="edgeStyle=orthogonalEdgeStyle;rounded=0;orthogonalLoop=1;jettySize=auto;html=1;fontFamily=Times New Roman;" edge="1" parent="1" source="qIPtM-hVdo-HhDl9xIlK-8" target="qIPtM-hVdo-HhDl9xIlK-10">
          <mxGeometry relative="1" as="geometry" />
        </mxCell>
        <mxCell id="qIPtM-hVdo-HhDl9xIlK-8" value="计算残差" style="whiteSpace=wrap;html=1;fontSize=17;rounded=1;fontFamily=Times New Roman;" vertex="1" parent="1">
          <mxGeometry x="920" y="350" width="100" height="30" as="geometry" />
        </mxCell>
        <mxCell id="qIPtM-hVdo-HhDl9xIlK-9" value="" style="edgeStyle=orthogonalEdgeStyle;rounded=0;orthogonalLoop=1;jettySize=auto;html=1;fontFamily=Times New Roman;entryX=0.5;entryY=0;entryDx=0;entryDy=0;" edge="1" parent="1" source="qIPtM-hVdo-HhDl9xIlK-10" target="qIPtM-hVdo-HhDl9xIlK-43">
          <mxGeometry relative="1" as="geometry">
            <mxPoint x="960" y="492" as="targetPoint" />
          </mxGeometry>
        </mxCell>
        <mxCell id="qIPtM-hVdo-HhDl9xIlK-10" value="基于监督机制选取合适的 w、b" style="whiteSpace=wrap;html=1;fontSize=17;rounded=1;fontFamily=Times New Roman;" vertex="1" parent="1">
          <mxGeometry x="840" y="400" width="260" height="30" as="geometry" />
        </mxCell>
        <mxCell id="qIPtM-hVdo-HhDl9xIlK-51" style="edgeStyle=orthogonalEdgeStyle;rounded=0;orthogonalLoop=1;jettySize=auto;html=1;exitX=1;exitY=0.5;exitDx=0;exitDy=0;entryX=0;entryY=0.5;entryDx=0;entryDy=0;" edge="1" parent="1" source="qIPtM-hVdo-HhDl9xIlK-12" target="qIPtM-hVdo-HhDl9xIlK-28">
          <mxGeometry relative="1" as="geometry">
            <Array as="points">
              <mxPoint x="1130" y="517" />
              <mxPoint x="1130" y="365" />
            </Array>
          </mxGeometry>
        </mxCell>
        <mxCell id="qIPtM-hVdo-HhDl9xIlK-12" value="增加隐含层的节点" style="rounded=1;whiteSpace=wrap;html=1;fontSize=17;fontFamily=Times New Roman;" vertex="1" parent="1">
          <mxGeometry x="875" y="502" width="190" height="30" as="geometry" />
        </mxCell>
        <mxCell id="qIPtM-hVdo-HhDl9xIlK-13" value="" style="edgeStyle=orthogonalEdgeStyle;rounded=0;orthogonalLoop=1;jettySize=auto;html=1;fontFamily=Times New Roman;" edge="1" parent="1" source="qIPtM-hVdo-HhDl9xIlK-14" target="qIPtM-hVdo-HhDl9xIlK-17">
          <mxGeometry relative="1" as="geometry" />
        </mxCell>
        <mxCell id="qIPtM-hVdo-HhDl9xIlK-14" value="满足式（&lt;span style=&quot;font-size: 12pt; text-align: start;&quot; lang=&quot;EN-US&quot;&gt;2-9&lt;/span&gt;&lt;span style=&quot;font-size: 12pt; text-align: start;&quot;&gt;）的终止条件？&lt;/span&gt;&lt;span style=&quot;font-size: medium; text-align: start;&quot;&gt;&lt;/span&gt;" style="rhombus;whiteSpace=wrap;html=1;fontSize=17;rounded=1;fontFamily=Times New Roman;" vertex="1" parent="1">
          <mxGeometry x="930" y="780" width="240" height="50" as="geometry" />
        </mxCell>
        <mxCell id="qIPtM-hVdo-HhDl9xIlK-15" value="结束" style="rounded=1;whiteSpace=wrap;html=1;fontSize=17;fontFamily=Times New Roman;" vertex="1" parent="1">
          <mxGeometry x="990" y="900" width="120" height="30" as="geometry" />
        </mxCell>
        <mxCell id="qIPtM-hVdo-HhDl9xIlK-16" style="edgeStyle=orthogonalEdgeStyle;rounded=0;orthogonalLoop=1;jettySize=auto;html=1;exitX=0.5;exitY=1;exitDx=0;exitDy=0;fontFamily=Times New Roman;" edge="1" parent="1" source="qIPtM-hVdo-HhDl9xIlK-17" target="qIPtM-hVdo-HhDl9xIlK-15">
          <mxGeometry relative="1" as="geometry" />
        </mxCell>
        <mxCell id="qIPtM-hVdo-HhDl9xIlK-17" value="输出结果" style="shape=parallelogram;perimeter=parallelogramPerimeter;whiteSpace=wrap;html=1;fixedSize=1;fontSize=17;rounded=1;fontFamily=Times New Roman;" vertex="1" parent="1">
          <mxGeometry x="990" y="850" width="120" height="30" as="geometry" />
        </mxCell>
        <mxCell id="qIPtM-hVdo-HhDl9xIlK-19" value="N" style="text;html=1;align=center;verticalAlign=middle;resizable=0;points=[];autosize=1;strokeColor=none;fillColor=none;fontFamily=Times New Roman;" vertex="1" parent="1">
          <mxGeometry x="1200" y="610" width="30" height="30" as="geometry" />
        </mxCell>
        <mxCell id="qIPtM-hVdo-HhDl9xIlK-20" value="Y" style="text;html=1;align=center;verticalAlign=middle;resizable=0;points=[];autosize=1;strokeColor=none;fillColor=none;fontFamily=Times New Roman;" vertex="1" parent="1">
          <mxGeometry x="1060" y="820" width="30" height="30" as="geometry" />
        </mxCell>
        <mxCell id="qIPtM-hVdo-HhDl9xIlK-21" style="edgeStyle=orthogonalEdgeStyle;rounded=0;orthogonalLoop=1;jettySize=auto;html=1;exitX=0.5;exitY=1;exitDx=0;exitDy=0;entryX=0.5;entryY=0;entryDx=0;entryDy=0;" edge="1" parent="1" source="qIPtM-hVdo-HhDl9xIlK-22" target="qIPtM-hVdo-HhDl9xIlK-24">
          <mxGeometry relative="1" as="geometry" />
        </mxCell>
        <mxCell id="qIPtM-hVdo-HhDl9xIlK-22" value="开始" style="rounded=1;whiteSpace=wrap;html=1;fontSize=17;fontFamily=Times New Roman;" vertex="1" parent="1">
          <mxGeometry x="1400" y="160" width="120" height="30" as="geometry" />
        </mxCell>
        <mxCell id="qIPtM-hVdo-HhDl9xIlK-23" style="edgeStyle=orthogonalEdgeStyle;rounded=0;orthogonalLoop=1;jettySize=auto;html=1;exitX=0.5;exitY=1;exitDx=0;exitDy=0;entryX=0.5;entryY=0;entryDx=0;entryDy=0;" edge="1" parent="1" source="qIPtM-hVdo-HhDl9xIlK-24" target="qIPtM-hVdo-HhDl9xIlK-26">
          <mxGeometry relative="1" as="geometry" />
        </mxCell>
        <mxCell id="qIPtM-hVdo-HhDl9xIlK-24" value="初始化参数" style="whiteSpace=wrap;html=1;fontSize=17;rounded=1;fontFamily=Times New Roman;" vertex="1" parent="1">
          <mxGeometry x="1400" y="210" width="120" height="30" as="geometry" />
        </mxCell>
        <mxCell id="qIPtM-hVdo-HhDl9xIlK-26" value="将麻雀分为觅食者和跟随者" style="whiteSpace=wrap;html=1;fontSize=17;rounded=1;fontFamily=Times New Roman;" vertex="1" parent="1">
          <mxGeometry x="1355" y="150" width="230" height="30" as="geometry" />
        </mxCell>
        <mxCell id="qIPtM-hVdo-HhDl9xIlK-27" style="edgeStyle=orthogonalEdgeStyle;rounded=0;orthogonalLoop=1;jettySize=auto;html=1;exitX=0.5;exitY=1;exitDx=0;exitDy=0;entryX=0.5;entryY=0;entryDx=0;entryDy=0;" edge="1" parent="1" source="qIPtM-hVdo-HhDl9xIlK-28" target="qIPtM-hVdo-HhDl9xIlK-30">
          <mxGeometry relative="1" as="geometry" />
        </mxCell>
        <mxCell id="qIPtM-hVdo-HhDl9xIlK-28" value="更新觅食者的位置" style="whiteSpace=wrap;html=1;fontSize=17;rounded=1;fontFamily=Times New Roman;" vertex="1" parent="1">
          <mxGeometry x="1152" y="350" width="165" height="30" as="geometry" />
        </mxCell>
        <mxCell id="qIPtM-hVdo-HhDl9xIlK-29" style="edgeStyle=orthogonalEdgeStyle;rounded=0;orthogonalLoop=1;jettySize=auto;html=1;exitX=0.5;exitY=1;exitDx=0;exitDy=0;entryX=0.5;entryY=0;entryDx=0;entryDy=0;" edge="1" parent="1" source="qIPtM-hVdo-HhDl9xIlK-30" target="qIPtM-hVdo-HhDl9xIlK-32">
          <mxGeometry relative="1" as="geometry" />
        </mxCell>
        <mxCell id="qIPtM-hVdo-HhDl9xIlK-30" value="计算追随者的位置" style="whiteSpace=wrap;html=1;fontSize=17;rounded=1;fontFamily=Times New Roman;" vertex="1" parent="1">
          <mxGeometry x="1152" y="400" width="165" height="30" as="geometry" />
        </mxCell>
        <mxCell id="qIPtM-hVdo-HhDl9xIlK-31" style="edgeStyle=orthogonalEdgeStyle;rounded=0;orthogonalLoop=1;jettySize=auto;html=1;exitX=0.5;exitY=1;exitDx=0;exitDy=0;entryX=0.5;entryY=0;entryDx=0;entryDy=0;" edge="1" parent="1" source="qIPtM-hVdo-HhDl9xIlK-32" target="qIPtM-hVdo-HhDl9xIlK-34">
          <mxGeometry relative="1" as="geometry" />
        </mxCell>
        <mxCell id="qIPtM-hVdo-HhDl9xIlK-32" value="更新侦查者的位置" style="whiteSpace=wrap;html=1;fontSize=17;rounded=1;fontFamily=Times New Roman;" vertex="1" parent="1">
          <mxGeometry x="1152" y="450" width="165" height="30" as="geometry" />
        </mxCell>
        <mxCell id="qIPtM-hVdo-HhDl9xIlK-34" value="计算适应度值" style="whiteSpace=wrap;html=1;fontSize=17;rounded=1;fontFamily=Times New Roman;" vertex="1" parent="1">
          <mxGeometry x="1152" y="498" width="165" height="30" as="geometry" />
        </mxCell>
        <mxCell id="qIPtM-hVdo-HhDl9xIlK-35" style="edgeStyle=orthogonalEdgeStyle;rounded=0;orthogonalLoop=1;jettySize=auto;html=1;exitX=0.5;exitY=1;exitDx=0;exitDy=0;entryX=0.5;entryY=0;entryDx=0;entryDy=0;" edge="1" parent="1" source="qIPtM-hVdo-HhDl9xIlK-37" target="qIPtM-hVdo-HhDl9xIlK-39">
          <mxGeometry relative="1" as="geometry" />
        </mxCell>
        <mxCell id="qIPtM-hVdo-HhDl9xIlK-36" style="edgeStyle=orthogonalEdgeStyle;rounded=0;orthogonalLoop=1;jettySize=auto;html=1;exitX=1;exitY=0.5;exitDx=0;exitDy=0;entryX=1;entryY=0.5;entryDx=0;entryDy=0;" edge="1" parent="1" source="qIPtM-hVdo-HhDl9xIlK-37" target="qIPtM-hVdo-HhDl9xIlK-26">
          <mxGeometry relative="1" as="geometry">
            <Array as="points">
              <mxPoint x="1610" y="535" />
              <mxPoint x="1610" y="275" />
            </Array>
          </mxGeometry>
        </mxCell>
        <mxCell id="qIPtM-hVdo-HhDl9xIlK-37" value="是否满足终止条件" style="rhombus;whiteSpace=wrap;html=1;fontSize=17;rounded=1;fontFamily=Times New Roman;" vertex="1" parent="1">
          <mxGeometry x="1720" y="554" width="240" height="50" as="geometry" />
        </mxCell>
        <mxCell id="qIPtM-hVdo-HhDl9xIlK-38" style="edgeStyle=orthogonalEdgeStyle;rounded=0;orthogonalLoop=1;jettySize=auto;html=1;exitX=0.5;exitY=1;exitDx=0;exitDy=0;entryX=0.5;entryY=0;entryDx=0;entryDy=0;" edge="1" parent="1" source="qIPtM-hVdo-HhDl9xIlK-39" target="qIPtM-hVdo-HhDl9xIlK-40">
          <mxGeometry relative="1" as="geometry" />
        </mxCell>
        <mxCell id="qIPtM-hVdo-HhDl9xIlK-39" value="输出结果" style="shape=parallelogram;perimeter=parallelogramPerimeter;whiteSpace=wrap;html=1;fixedSize=1;fontSize=17;rounded=1;fontFamily=Times New Roman;" vertex="1" parent="1">
          <mxGeometry x="1780" y="624" width="120" height="30" as="geometry" />
        </mxCell>
        <mxCell id="qIPtM-hVdo-HhDl9xIlK-40" value="结束" style="rounded=1;whiteSpace=wrap;html=1;fontSize=17;fontFamily=Times New Roman;" vertex="1" parent="1">
          <mxGeometry x="1780" y="674" width="120" height="30" as="geometry" />
        </mxCell>
        <mxCell id="qIPtM-hVdo-HhDl9xIlK-41" value="N" style="text;html=1;align=center;verticalAlign=middle;resizable=0;points=[];autosize=1;strokeColor=none;fillColor=none;" vertex="1" parent="1">
          <mxGeometry x="1585" y="388" width="30" height="30" as="geometry" />
        </mxCell>
        <mxCell id="qIPtM-hVdo-HhDl9xIlK-42" value="Y" style="text;html=1;align=center;verticalAlign=middle;resizable=0;points=[];autosize=1;strokeColor=none;fillColor=none;" vertex="1" parent="1">
          <mxGeometry x="1845" y="532" width="30" height="30" as="geometry" />
        </mxCell>
        <mxCell id="qIPtM-hVdo-HhDl9xIlK-45" style="edgeStyle=orthogonalEdgeStyle;rounded=0;orthogonalLoop=1;jettySize=auto;html=1;exitX=0.5;exitY=1;exitDx=0;exitDy=0;entryX=0.5;entryY=0;entryDx=0;entryDy=0;" edge="1" parent="1" source="qIPtM-hVdo-HhDl9xIlK-43" target="qIPtM-hVdo-HhDl9xIlK-12">
          <mxGeometry relative="1" as="geometry" />
        </mxCell>
        <mxCell id="qIPtM-hVdo-HhDl9xIlK-43" value="确定输出权重" style="rounded=1;whiteSpace=wrap;html=1;fontSize=17;fontFamily=Times New Roman;" vertex="1" parent="1">
          <mxGeometry x="900" y="452" width="140" height="30" as="geometry" />
        </mxCell>
        <mxCell id="qIPtM-hVdo-HhDl9xIlK-50" value="SCN" style="text;html=1;align=center;verticalAlign=middle;resizable=0;points=[];autosize=1;strokeColor=none;fillColor=none;" vertex="1" parent="1">
          <mxGeometry x="810" y="555" width="50" height="30" as="geometry" />
        </mxCell>
      </root>
    </mxGraphModel>
  </diagram>
</mxfile>
